<svg width="0" height="0" class="hidden">
  <symbol xmlns="http://www.w3.org/2000/svg" viewBox="0 0 50 50" id="logoMain">
    <path d="M 39.615234 12.013672 C 23.3216 12.488305 1.5113437 26.193297 0.46484375 26.857422 C 0.04784375 27.122422 -0.11401563 27.651516 0.083984375 28.103516 C 0.28098437 28.555516 0.78285937 28.794922 1.2558594 28.669922 C 20.603859 23.550922 26.827672 25.722313 28.638672 28.445312 C 31.027672 32.037312 26.940062 38.822766 25.164062 41.134766 C 24.868063 41.521766 24.892609 42.066828 25.224609 42.423828 C 25.419609 42.633828 25.686031 42.742188 25.957031 42.742188 C 26.146031 42.742187 26.339812 42.688125 26.507812 42.578125 C 27.463813 41.949125 49.913 27.052797 50 17.341797 C 50.022 14.916797 48.773594 13.395312 46.183594 12.695312 C 44.157719 12.146437 41.942896 11.945867 39.615234 12.013672 z"></path>
  </symbol>
</svg>